<svg width="28" height="28" viewBox="0 0 28 28" fill="none" xmlns="http://www.w3.org/2000/svg">
<rect width="28" height="28" rx="5" fill="#939393"/>
<path fill-rule="evenodd" clip-rule="evenodd" d="M14 6.5C9.86 6.5 6.5 9.86 6.5 14C6.5 18.14 9.86 21.5 14 21.5C18.14 21.5 21.5 18.14 21.5 14C21.5 9.86 18.14 6.5 14 6.5ZM14 17.75C13.5875 17.75 13.25 17.4125 13.25 17V14C13.25 13.5875 13.5875 13.25 14 13.25C14.4125 13.25 14.75 13.5875 14.75 14V17C14.75 17.4125 14.4125 17.75 14 17.75ZM14.75 11.75H13.25V10.25H14.75V11.75Z" fill="white"/>
</svg>
