<svg width="30" height="30" viewBox="0 0 30 30" fill="none" xmlns="http://www.w3.org/2000/svg">
<path d="M12.1047 3.84222C14.6304 3.84222 17.1253 3.84222 19.6509 3.84222C21.653 3.84222 22.5462 4.76436 22.577 6.73157C22.6078 10.5123 22.6078 14.293 22.577 18.0738C22.577 20.1332 21.653 21.0246 19.5585 21.0246C14.5996 21.0246 9.60988 21.0246 4.65095 21.0246C2.55649 21.0246 1.66327 20.1332 1.66327 18.043C1.66327 14.3238 1.66327 10.5738 1.66327 6.85452C1.66327 4.67214 2.52569 3.84222 4.77415 3.84222C7.20742 3.84222 9.67148 3.84222 12.1047 3.84222Z" fill="black"/>
<path d="M16.2628 25.9733C13.3984 25.9733 10.5031 25.9119 7.63861 26.0041C6.56059 26.0348 6.52979 25.5738 6.52979 24.7438C6.52979 23.9447 6.52978 23.4529 7.63861 23.4836C13.0288 23.5451 18.4189 23.4836 23.809 23.5451C24.8255 23.5451 25.0719 23.2992 25.0719 22.2848C25.0103 18.1967 25.0719 14.0779 25.0103 9.98974C25.0103 8.97539 25.2567 8.72949 26.2731 8.72949C27.2895 8.72949 27.5359 9.00613 27.5359 9.98974C27.4743 14.293 27.5051 18.5963 27.5051 22.8996C27.5051 25.082 26.6119 25.9733 24.4251 25.9733C21.7146 26.0041 18.9733 25.9733 16.2628 25.9733Z" fill="black"/>
<path d="M15.3696 11.2193C17.1869 13.6783 18.9117 16.0451 20.7598 18.5348C14.9384 18.5348 9.33266 18.5348 3.44971 18.5348C4.89735 16.6906 6.25258 14.9693 7.70022 13.125C8.59344 14.1701 9.42507 15.0922 10.1951 16.1066C10.7187 16.8135 11.0575 16.9057 11.6119 16.1066C12.7824 14.5082 14.0452 12.9713 15.3696 11.2193Z" fill="#C6FFC5"/>
</svg>
