<svg width="172" height="25" viewBox="0 0 172 25" fill="none" xmlns="http://www.w3.org/2000/svg">
<path d="M68.0651 2.17871C66.4504 2.17871 65.1019 2.54993 64.0172 3.29017C62.9326 4.0304 62.1386 5.02695 61.631 6.27982C61.1926 5.00486 60.4658 4.00167 59.4527 3.27249C58.4374 2.5433 57.0776 2.17871 55.3713 2.17871C53.8035 2.17871 52.4952 2.54993 51.4464 3.29017C50.3975 4.0304 49.608 5.0159 49.078 6.24668L48.662 2.65821H44.8579V22.3086H49.3889V11.7819C49.3889 10.0959 49.7467 8.7237 50.4601 7.66307C51.1735 6.60243 52.2694 6.07433 53.7454 6.07433C54.7831 6.07433 55.5949 6.2975 56.1831 6.74164C56.7713 7.18578 57.1805 7.7846 57.4109 8.53588C57.5495 8.92257 57.6479 9.32693 57.7038 9.74898C57.762 10.171 57.7911 10.6085 57.7911 11.0659V22.3086H62.2885V11.1676C62.2885 9.68711 62.6105 8.46738 63.2568 7.5106C63.9032 6.55382 64.9632 6.07433 66.4393 6.07433C67.9153 6.07433 69.0335 6.54719 69.6552 7.49292C70.2769 8.43865 70.59 9.6849 70.59 11.2361V22.3086H75.121V10.0053C75.121 7.56805 74.5261 5.65449 73.3386 4.26462C72.151 2.87475 70.3932 2.18092 68.0629 2.18092L68.0651 2.17871Z" fill="black"/>
<path d="M93.625 3.37636C92.887 2.96537 92.0864 2.66485 91.2209 2.4704C90.3554 2.27595 89.4273 2.18094 88.4365 2.18094C86.4998 2.18094 84.7755 2.57426 83.266 3.36089C81.7564 4.14753 80.5733 5.29213 79.7213 6.79469C79.2829 7.54597 78.9542 8.39006 78.735 9.32474C78.5158 10.2594 78.4062 11.2737 78.4062 12.3674V12.8801C78.4062 16.0708 79.2762 18.5257 81.0184 20.2448C82.7583 21.9662 85.2318 22.8257 88.4388 22.8257C90.4448 22.8257 92.1982 22.439 93.6966 21.6634C95.195 20.8879 96.3713 19.7609 97.2256 18.2805C97.6416 17.5513 97.9525 16.7359 98.1605 15.8366C98.3684 14.9373 98.4713 13.9518 98.4713 12.8801V12.3674C98.4713 10.202 98.0442 8.36354 97.1921 6.84772C96.34 5.3319 95.1502 4.17625 93.6295 3.37857L93.625 3.37636ZM93.8665 12.8094C93.8665 14.745 93.388 16.2432 92.4308 17.3038C91.4736 18.3622 90.1429 18.8925 88.4365 18.8925C86.7302 18.8925 85.4331 18.3622 84.4759 17.3038C83.5187 16.2454 83.0401 14.7472 83.0401 12.8094V12.3652C83.0401 10.2926 83.541 8.71488 84.5452 7.63215C85.5493 6.54942 86.8576 6.00806 88.4723 6.00806C90.087 6.00806 91.4177 6.5671 92.3972 7.68297C93.3768 8.79885 93.8665 10.3611 93.8665 12.3652V12.8094Z" fill="black"/>
<path d="M116.177 11.9542C115.439 11.5675 114.627 11.2759 113.739 11.0836C112.851 10.8892 111.957 10.7257 111.058 10.5887C110.112 10.4517 109.224 10.3102 108.394 10.1622C107.565 10.0142 106.896 9.79098 106.388 9.49489C106.136 9.33579 105.943 9.14134 105.818 8.91375C105.691 8.68615 105.628 8.4232 105.628 8.12711C105.628 7.44433 105.894 6.87866 106.424 6.43452C106.954 5.99038 107.922 5.7672 109.329 5.7672C110.644 5.7672 111.642 5.99038 112.321 6.43452C113.001 6.87866 113.422 7.57912 113.585 8.5359H118.219C117.942 6.57594 117.105 5.02697 115.712 3.889C114.316 2.74882 112.201 2.18094 109.365 2.18094C106.529 2.18094 104.597 2.76871 103.226 3.94203C101.853 5.11536 101.168 6.60245 101.168 8.40111C101.168 9.49489 101.388 10.3898 101.826 11.0836C102.264 11.7797 102.853 12.3188 103.591 12.7077C104.329 13.0944 105.14 13.3861 106.028 13.5783C106.916 13.7728 107.811 13.9363 108.71 14.0733C109.656 14.2103 110.537 14.3517 111.355 14.4997C112.174 14.6478 112.836 14.871 113.343 15.1671C113.596 15.3262 113.786 15.5206 113.914 15.7482C114.041 15.9758 114.104 16.2387 114.104 16.5348C114.104 17.3104 113.793 17.9247 113.169 18.3799C112.547 18.8351 111.51 19.0627 110.056 19.0627C108.602 19.0627 107.538 18.813 106.717 18.3114C105.898 17.8098 105.386 16.979 105.178 15.8167H100.267C100.567 18.0949 101.495 19.8316 103.052 21.0293C104.608 22.2247 106.909 22.8235 109.953 22.8235C112.997 22.8235 115.054 22.2026 116.472 20.9608C117.89 19.7189 118.599 18.1523 118.599 16.2608C118.599 15.1671 118.38 14.2722 117.942 13.5783C117.503 12.8845 116.915 12.3431 116.177 11.9542Z" fill="black"/>
<path d="M136.271 3.03385C135.625 2.73775 134.876 2.52121 134.024 2.38421C133.169 2.24721 132.201 2.17871 131.118 2.17871C128.283 2.17871 126.057 2.85707 124.443 4.21159C122.828 5.56611 121.94 7.36255 121.779 9.5943H126.449C126.518 8.34143 126.945 7.3736 127.728 6.68861C128.513 6.00583 129.723 5.66333 131.36 5.66333C132.905 5.66333 133.988 5.90197 134.612 6.38147C135.236 6.86096 135.547 7.50839 135.547 8.33038C135.547 9.15237 135.16 9.69153 134.388 10.023C133.616 10.3544 132.342 10.6328 130.566 10.8604C129.32 11.0416 128.294 11.214 127.489 11.3731C126.681 11.5322 125.99 11.7156 125.413 11.9189C125.136 12.0095 124.854 12.1244 124.566 12.2614C124.277 12.3984 123.995 12.5574 123.718 12.7408C122.911 13.2424 122.278 13.8965 121.815 14.7052C121.354 15.514 121.124 16.4663 121.124 17.5579C121.124 19.1533 121.672 20.4282 122.768 21.385C123.864 22.3418 125.483 22.8213 127.627 22.8213C129.772 22.8213 131.38 22.3992 132.729 21.5574C134.077 20.7133 135.086 19.6548 135.755 18.3799L136.24 22.3108H139.905V9.05073C139.905 7.63876 139.623 6.41903 139.058 5.39375C138.492 4.36848 137.564 3.58184 136.273 3.03606L136.271 3.03385ZM135.58 13.4236C135.58 14.3583 135.321 15.2864 134.802 16.21C134.283 17.1336 133.538 17.8893 132.57 18.4837C132.087 18.7798 131.561 19.003 130.995 19.1488C130.43 19.2969 129.826 19.372 129.179 19.372C128.142 19.372 127.363 19.1665 126.845 18.7577C126.326 18.3467 126.066 17.7324 126.066 16.9127C126.066 16.4796 126.165 16.0929 126.362 15.7504C126.558 15.4079 126.851 15.1118 127.243 14.8621C127.703 14.566 128.24 14.3318 128.851 14.1617C129.461 13.9915 130.367 13.8147 131.566 13.6313C132.465 13.4943 133.254 13.3242 133.934 13.1187C134.614 12.9132 135.162 12.6635 135.578 12.3674V13.4258L135.58 13.4236Z" fill="black"/>
<path d="M148.79 2.6582H144.19V22.3086H148.79V2.6582Z" fill="black"/>
<path d="M167.261 14.3451V14.3782C167.031 15.8808 166.501 17.0099 165.671 17.7612C164.841 18.5125 163.698 18.8881 162.247 18.8881C160.588 18.8881 159.284 18.3578 158.338 17.2994C157.392 16.2409 156.92 14.7428 156.92 12.8049V12.3608C156.92 10.2881 157.416 8.71045 158.407 7.62772C159.398 6.54499 160.69 6.00363 162.281 6.00363C163.665 6.00363 164.783 6.36159 165.635 7.07973C166.489 7.79786 167.02 8.92037 167.227 10.445V10.5467H171.966V10.4782C171.736 7.62993 170.745 5.53297 168.992 4.1895C167.239 2.84603 164.991 2.17209 162.247 2.17209C160.333 2.17209 158.622 2.56541 157.11 3.35204C155.6 4.13868 154.406 5.28328 153.529 6.78584C153.091 7.53712 152.762 8.38121 152.543 9.31589C152.324 10.2506 152.214 11.2648 152.214 12.3586V12.8712C152.214 16.062 153.091 18.5169 154.842 20.236C156.596 21.9573 159.051 22.8169 162.209 22.8169C164.953 22.8169 167.212 22.1451 168.988 20.7995C170.763 19.456 171.767 17.3369 171.998 14.4423V14.3406H167.259L167.261 14.3451Z" fill="black"/>
<path d="M4.23132 0.501591V9.05957L14.5434 14.9593C14.9348 14.7362 15.0309 14.6809 15.4223 14.4578V5.89977L5.11023 0C4.71886 0.223175 4.62269 0.278416 4.23132 0.501591Z" fill="black"/>
<path d="M0 10.5445V19.1002L10.3121 25C10.7035 24.7768 10.7996 24.7216 11.191 24.4984V15.9404L0.878909 10.0451C0.487537 10.2682 0.391372 10.3235 0 10.5467V10.5445Z" fill="black"/>
<path d="M29.1427 0.501591C28.7513 0.278416 28.6551 0.223175 28.2637 0L17.9517 5.89977V14.4555C18.343 14.6787 18.4392 14.734 18.8306 14.9571L29.1427 9.05736V0.501591Z" fill="black"/>
<path d="M21.9817 15.9426V24.5006C22.3731 24.7238 22.4692 24.779 22.8606 25.0022L33.1727 19.1024V10.5467C32.7813 10.3235 32.6851 10.2682 32.2938 10.0451L21.9817 15.9448V15.9426Z" fill="black"/>
</svg>
