<svg width="48" height="36" viewBox="0 0 48 36" fill="none" xmlns="http://www.w3.org/2000/svg">
<g clip-path="url(#clip0_196_7234)">
<path d="M6.09286 0.722421V13.0426L20.9378 21.536C21.4989 21.2157 21.6411 21.1337 22.2022 20.8135V8.49333L7.35727 0C6.79619 0.320208 6.65395 0.402213 6.09286 0.722421Z" fill="white"/>
<path d="M0 15.1865V27.5067L14.8449 36C15.406 35.6798 15.5483 35.5978 16.1093 35.2776V22.9574L1.26441 14.4641C0.703327 14.7843 0.561081 14.8663 0 15.1865Z" fill="white"/>
<path d="M41.9546 0.722421C41.3936 0.402213 41.2513 0.320208 40.6902 0L25.8453 8.49333V20.8135C26.4064 21.1337 26.5486 21.2157 27.1097 21.536L41.9546 13.0426V0.722421Z" fill="white"/>
<path d="M46.4907 14.4641L31.6458 22.9574V35.2776C32.2068 35.5978 32.3491 35.6798 32.9102 36L47.7551 27.5067V15.1865C47.194 14.8663 47.0518 14.7843 46.4907 14.4641Z" fill="white"/>
</g>
<defs>
<clipPath id="clip0_196_7234">
<rect width="47.7551" height="36" fill="white"/>
</clipPath>
</defs>
</svg>
