<svg width="27" height="20" viewBox="0 0 27 20" fill="none" xmlns="http://www.w3.org/2000/svg">
<path d="M3.38489 0.401345V7.24591L11.6321 11.9644C11.9438 11.7865 12.0228 11.741 12.3345 11.5631V4.71852L4.08734 0C3.77562 0.177893 3.6966 0.223452 3.38489 0.401345Z" fill="black"/>
<path d="M0 8.17912V15.0237L8.24719 19.7422C8.5589 19.5643 8.63792 19.5187 8.94964 19.3408V12.4963L0.702449 7.77777C0.390737 7.95566 0.311712 8.00122 0 8.17912Z" fill="black"/>
<path d="M23.3082 0.401345C22.9964 0.223452 22.9174 0.177893 22.6057 0L14.3585 4.71852V11.5631C14.6702 11.741 14.7493 11.7865 15.061 11.9644L23.3082 7.24591V0.401345Z" fill="black"/>
<path d="M25.8281 8.03558L17.5809 12.7541V19.5987C17.8926 19.7766 17.9717 19.8221 18.2834 20L26.5306 15.2815V8.43693C26.2189 8.25903 26.1398 8.21348 25.8281 8.03558Z" fill="black"/>
</svg>
