<svg width="96" height="17" viewBox="0 0 96 17" fill="none" xmlns="http://www.w3.org/2000/svg">
<path d="M17.5235 0.316284C16.3046 0.316284 15.2854 0.598685 14.4674 1.16511C13.6494 1.73153 13.0489 2.49272 12.6658 3.45028C12.3348 2.47487 11.7862 1.70881 11.0201 1.15213C10.2541 0.595439 9.22672 0.316284 7.93806 0.316284C6.75328 0.316284 5.7665 0.598685 4.97447 1.16511C4.18245 1.73153 3.58519 2.4846 3.18594 3.42432L2.8727 0.681458H0V15.699H3.42127V7.65546C3.42127 6.3668 3.69069 5.31835 4.23115 4.50848C4.7716 3.6986 5.5977 3.29448 6.7127 3.29448C7.49661 3.29448 8.1101 3.46489 8.55318 3.8041C8.99788 4.1433 9.30625 4.60099 9.47991 5.17553C9.58378 5.47091 9.65844 5.7809 9.70226 6.10226C9.74608 6.42361 9.76718 6.75957 9.76718 7.10851V15.7006H13.1625V7.18642C13.1625 6.05519 13.4059 5.12359 13.8944 4.39162C14.3813 3.65965 15.1831 3.29448 16.2981 3.29448C17.4131 3.29448 18.2571 3.65641 18.7277 4.37864C19.1984 5.10087 19.4321 6.05519 19.4321 7.23835V15.7006H22.8534V6.29864C22.8534 4.43544 22.4054 2.97312 21.5079 1.91006C20.6104 0.848626 19.2828 0.316284 17.5251 0.316284L17.5235 0.316284Z" fill="black"/>
<path d="M36.8227 1.23003C36.266 0.916792 35.6606 0.686327 35.0082 0.538634C34.3558 0.390942 33.6546 0.316284 32.9064 0.316284C31.4441 0.316284 30.1425 0.616538 29.0015 1.21705C27.8605 1.81755 26.9679 2.69235 26.3252 3.84143C25.9941 4.41597 25.7458 5.0603 25.5802 5.77441C25.4147 6.48853 25.3319 7.2627 25.3319 8.09854V8.48968C25.3319 10.9274 25.9892 12.8036 27.3039 14.1182C28.6185 15.4328 30.4865 16.0902 32.9064 16.0902C34.4207 16.0902 35.745 15.7948 36.8763 15.2024C38.0075 14.61 38.8953 13.7482 39.5396 12.617C39.8528 12.0603 40.0882 11.437 40.244 10.7489C40.4014 10.0607 40.4793 9.30767 40.4793 8.48968V8.09854C40.4793 6.44471 40.158 5.03757 39.5136 3.88038C38.8693 2.72318 37.9734 1.83865 36.8243 1.23003H36.8227ZM37.0061 8.43775C37.0061 9.91792 36.6442 11.0621 35.9219 11.872C35.1997 12.6819 34.1935 13.086 32.9048 13.086C31.6161 13.086 30.6375 12.6819 29.9136 11.872C29.1914 11.0621 28.8295 9.91792 28.8295 8.43775V8.09854C28.8295 6.5145 29.2076 5.30861 29.9656 4.48089C30.7235 3.65316 31.7119 3.24092 32.9308 3.24092C34.1496 3.24092 35.1559 3.66777 35.8944 4.52146C36.6344 5.37516 37.0045 6.56806 37.0045 8.10016V8.43937L37.0061 8.43775Z" fill="black"/>
<path d="M53.8497 7.78509C53.293 7.48971 52.6779 7.26736 52.0076 7.11967C51.3373 6.97197 50.6621 6.84538 49.9837 6.74151C49.2696 6.63764 48.5993 6.5289 47.9728 6.41529C47.3463 6.30168 46.8416 6.13289 46.4586 5.90567C46.267 5.78394 46.1226 5.63625 46.0268 5.46097C45.9311 5.28731 45.884 5.08605 45.884 4.86046C45.884 4.33785 46.0837 3.90776 46.4845 3.56693C46.8854 3.22773 47.6158 3.05731 48.6788 3.05731C49.6721 3.05731 50.4235 3.22773 50.938 3.56693C51.4509 3.90614 51.769 4.44173 51.8907 5.1737H55.3899C55.1805 3.67567 54.5492 2.49251 53.4959 1.62096C52.4425 0.751038 50.8455 0.314453 48.7032 0.314453C46.5608 0.314453 45.1034 0.762399 44.0679 1.65991C43.0324 2.55743 42.5147 3.69353 42.5147 5.0682C42.5147 5.90404 42.6802 6.58732 43.0113 7.11804C43.3424 7.64876 43.7855 8.06262 44.3438 8.35801C44.9005 8.65339 45.514 8.87575 46.1843 9.02344C46.8546 9.17113 47.5297 9.29772 48.2082 9.4016C48.9223 9.50547 49.5877 9.61421 50.2061 9.72782C50.8244 9.84143 51.3243 10.0102 51.7073 10.2374C51.8988 10.3592 52.0417 10.5069 52.1374 10.6821C52.2332 10.8558 52.2819 11.057 52.2819 11.2826C52.2819 11.875 52.0465 12.3441 51.5759 12.693C51.1052 13.042 50.3229 13.2156 49.2258 13.2156C48.1286 13.2156 47.3236 13.0241 46.7053 12.6411C46.0869 12.2581 45.699 11.6219 45.5432 10.7341H41.8347C42.0603 12.4755 42.7614 13.8032 43.9364 14.7169C45.1115 15.6306 46.8481 16.0883 49.1462 16.0883C51.4444 16.0883 52.9992 15.6144 54.0688 14.665C55.14 13.7155 55.6755 12.5194 55.6755 11.0733C55.6755 10.2374 55.51 9.55416 55.1789 9.02344C54.8478 8.49272 54.4047 8.07886 53.8464 7.78347L53.8497 7.78509Z" fill="black"/>
<path d="M69.0229 0.96852C68.536 0.742924 67.9696 0.577378 67.3252 0.471884C66.6809 0.368012 65.9489 0.314453 65.1309 0.314453C62.9886 0.314453 61.3088 0.832188 60.0899 1.86928C58.8711 2.90475 58.2008 4.27618 58.079 5.98357H61.6042C61.6561 5.026 61.9791 4.28592 62.5699 3.76331C63.1623 3.24071 64.076 2.97941 65.3127 2.97941C66.4796 2.97941 67.2976 3.16281 67.7683 3.52798C68.239 3.89315 68.4727 4.38979 68.4727 5.01627C68.4727 5.64274 68.1805 6.0566 67.5979 6.30979C67.0152 6.56298 66.0528 6.77559 64.7122 6.94925C63.7725 7.08883 62.9967 7.21867 62.3881 7.34039C61.7778 7.46212 61.2569 7.60169 60.8203 7.7575C60.6109 7.82729 60.3983 7.91493 60.1808 8.0188C59.9633 8.12268 59.7507 8.2444 59.5414 8.38398C58.9327 8.767 58.454 9.26689 58.105 9.88525C57.7577 10.5036 57.5824 11.2307 57.5824 12.0666C57.5824 13.2854 57.9963 14.2608 58.8224 14.9912C59.6485 15.7215 60.8722 16.0883 62.492 16.0883C64.1117 16.0883 65.3257 15.767 66.3449 15.1226C67.3642 14.4783 68.1254 13.6684 68.6301 12.693L68.9953 15.6972H71.7641V5.56322C71.7641 4.48392 71.5499 3.55233 71.1247 2.76842C70.6978 1.98451 69.9967 1.38401 69.0229 0.966897V0.96852ZM68.5003 8.90821C68.5003 9.62232 68.3039 10.3316 67.9128 11.0376C67.5216 11.742 66.9601 12.3214 66.2281 12.7742C65.8629 12.9998 65.4669 13.1702 65.0401 13.2838C64.6132 13.3974 64.1571 13.4542 63.6686 13.4542C62.8847 13.4542 62.2972 13.2984 61.9061 12.9835C61.5149 12.6687 61.3185 12.1996 61.3185 11.5732C61.3185 11.2421 61.3932 10.9467 61.5409 10.6854C61.6886 10.4241 61.9109 10.1985 62.2063 10.007C62.5536 9.78138 62.9594 9.60285 63.4203 9.47138C63.8812 9.33992 64.5645 9.20521 65.4702 9.06726C66.1486 8.96339 66.7458 8.83192 67.2587 8.67612C67.7716 8.52031 68.1854 8.3288 68.4987 8.10158V8.91145L68.5003 8.90821Z" fill="black"/>
<path d="M78.4752 0.681335H75.002V15.6989H78.4752V0.681335Z" fill="black"/>
<path d="M92.4231 9.61456V9.64053C92.2495 10.7896 91.8486 11.6514 91.2221 12.226C90.5956 12.8005 89.7338 13.0878 88.6367 13.0878C87.3837 13.0878 86.3986 12.6836 85.6861 11.8738C84.972 11.0639 84.6149 9.91969 84.6149 8.43952V8.10031C84.6149 6.51627 84.9898 5.31038 85.738 4.48266C86.4862 3.65493 87.4616 3.24269 88.6626 3.24269C89.7079 3.24269 90.5518 3.51697 91.1961 4.06555C91.8405 4.61412 92.2413 5.47106 92.3972 6.63799V6.7159H95.9759V6.66396C95.8022 4.48753 95.0524 2.88563 93.7296 1.85828C92.4069 0.83092 90.7092 0.318054 88.6367 0.318054C87.1922 0.318054 85.8987 0.618308 84.7577 1.21882C83.6168 1.81932 82.716 2.69412 82.0538 3.8432C81.7227 4.41774 81.4744 5.06207 81.3089 5.77618C81.1433 6.4903 81.0605 7.26447 81.0605 8.10031V8.49145C81.0605 10.9292 81.7227 12.8054 83.0455 14.12C84.3682 15.4346 86.2233 16.0919 88.6091 16.0919C90.6817 16.0919 92.3874 15.5791 93.728 14.5517C95.0686 13.5244 95.8265 11.9046 96.0002 9.69409V9.61619H92.4215L92.4231 9.61456Z" fill="black"/>
</svg>
