<svg width="28" height="28" viewBox="0 0 28 28" fill="none" xmlns="http://www.w3.org/2000/svg">
<rect width="28" height="28" rx="5" fill="#EB4335"/>
<g clip-path="url(#clip0_201_9643)">
<path fill-rule="evenodd" clip-rule="evenodd" d="M9.1808 18.5602H14.0832C14.6697 18.5602 15.2562 18.5623 15.842 18.5644C17.0116 18.5685 18.1784 18.5726 19.337 18.5602C20.4655 18.5417 21.1315 17.6168 20.5765 16.6918C19.7255 15.2303 19.6515 13.6949 19.633 12.0854C19.6145 9.107 17.1171 6.73906 14.1572 6.72056C11.1047 6.70206 8.62582 9.144 8.58882 12.3074C8.5884 12.3392 8.58799 12.3711 8.58758 12.4029C8.56992 13.7753 8.55273 15.1117 7.79334 16.3773C7.01636 17.6723 7.62685 18.5602 9.1808 18.5602ZM14.1012 21.1501C15.1742 21.1501 15.9326 20.5026 16.2101 19.3372H12.0107C12.2697 20.4841 13.0467 21.1501 14.1012 21.1501Z" fill="white"/>
<circle cx="20" cy="9" r="2.5" fill="#EB4335" stroke="white"/>
</g>
<defs>
<clipPath id="clip0_201_9643">
<rect width="18.0185" height="18" fill="white" transform="translate(5 5)"/>
</clipPath>
</defs>
</svg>
