<svg width="15" height="16" viewBox="0 0 15 16" fill="none" xmlns="http://www.w3.org/2000/svg">
<path fill-rule="evenodd" clip-rule="evenodd" d="M1.815 13.2738H6.97535C7.59271 13.2738 8.21008 13.276 8.82673 13.2782C10.0579 13.2825 11.2861 13.2868 12.5057 13.2738C13.6935 13.2544 14.3946 12.2807 13.8104 11.3071C12.9146 9.7687 12.8367 8.15244 12.8173 6.45829C12.7978 3.32313 10.1689 0.830588 7.05324 0.811115C3.84019 0.791642 1.23081 3.36208 1.19186 6.69196C1.19142 6.72548 1.19099 6.75897 1.19056 6.79244C1.17197 8.23713 1.15387 9.64378 0.354522 10.976C-0.463345 12.3391 0.179265 13.2738 1.815 13.2738ZM6.9943 16C8.12374 16 8.92213 15.3185 9.21422 14.0917H4.79385C5.06647 15.299 5.88434 16 6.9943 16Z" fill="#CCCCCC"/>
</svg>
