<svg width="28" height="28" viewBox="0 0 28 28" fill="none" xmlns="http://www.w3.org/2000/svg">
<rect width="28" height="28" rx="5" fill="#FFBD3E"/>
<path d="M13.8207 6.86333C13.894 6.71469 14.106 6.71469 14.1793 6.86333L16.271 11.1008C16.3001 11.1598 16.3564 11.2007 16.4214 11.2102L21.0992 11.8939C21.2632 11.9179 21.3286 12.1195 21.2099 12.2351L17.8254 15.5316C17.7782 15.5775 17.7567 15.6438 17.7678 15.7087L18.5665 20.3655C18.5945 20.5289 18.423 20.6535 18.2763 20.5764L14.0931 18.3765C14.0348 18.3458 13.9652 18.3458 13.9069 18.3765L9.72373 20.5763C9.577 20.6535 9.40549 20.5289 9.43351 20.3655L10.2322 15.7087C10.2433 15.6438 10.2218 15.5775 10.1746 15.5316L6.79014 12.2351C6.67142 12.1195 6.73677 11.9179 6.90076 11.8939L11.5786 11.2102C11.6436 11.2007 11.6999 11.1598 11.729 11.1008L13.8207 6.86333Z" fill="white" stroke="white" stroke-width="2" stroke-linecap="round" stroke-linejoin="round"/>
</svg>
