<svg width="30" height="30" viewBox="0 0 30 30" fill="none" xmlns="http://www.w3.org/2000/svg">
<path d="M20.0878 4.30921C22.4588 5.6579 24.5993 6.875 26.9704 8.25658C24.6323 9.60526 22.4918 10.8224 20.3842 12.0395C20.2525 11.9079 20.1207 11.875 20.1207 11.8092C19.989 9.24342 19.989 9.24342 17.3875 9.24342C14.5225 9.24342 11.6904 9.24342 8.82546 9.24342C6.0922 9.24342 4.84083 10.2961 4.31394 12.9934C4.18221 13.6513 3.98463 14.2105 3.22722 14.1447C2.37102 14.0789 2.27222 13.3882 2.33809 12.6645C2.46981 9.76974 5.07134 7.33553 8.16684 7.26974C11.5258 7.20395 14.8518 7.17105 18.2108 7.30263C19.7914 7.36842 20.4171 6.97369 20.1207 5.36184C20.0549 5.13158 20.0878 4.86842 20.0878 4.30921Z" fill="white"/>
<path d="M10.1757 25.9868C7.90344 24.704 5.73 23.454 3.32605 22.1053C5.69707 20.7566 7.83758 19.5395 9.97808 18.2895C10.1098 18.454 10.2086 18.5197 10.2086 18.5855C10.3074 21.0855 10.3074 21.0855 12.8101 21.0855C15.7739 21.0855 18.7377 21.1184 21.7015 21.0855C24.1713 21.0526 25.5873 19.9013 26.0154 17.4671C26.1471 16.7434 26.2789 16.0855 27.1351 16.1842C28.09 16.3158 28.0571 17.1053 27.9913 17.8618C27.6619 20.7566 25.1263 23.0263 22.0966 23.0592C18.8035 23.125 15.5105 23.1579 12.2174 23.0263C10.7026 22.9605 9.81343 23.2237 10.1757 24.9671C10.2415 25.2632 10.1757 25.5263 10.1757 25.9868Z" fill="white"/>
</svg>
