<svg width="28" height="28" viewBox="0 0 28 28" fill="none" xmlns="http://www.w3.org/2000/svg">
<path d="M0.882696 24.5828C1.12961 20.8098 1.83949 17.0675 3.7222 13.6319C5.94442 9.6135 9.37035 7.22086 13.9691 6.69939C14.9876 6.57669 15.2345 6.20859 15.1728 5.28834C15.1111 4.18405 15.1111 3.04908 15.1728 1.91411C15.2345 0.748467 15.9753 0.411043 16.9012 1.14724C20.2037 3.7546 23.4444 6.42331 26.716 9.03068C27.5494 9.70552 27.6111 10.2883 26.7778 11.0245C23.537 13.8466 20.2963 16.6687 17.0247 19.4908C16.6852 19.7975 16.3148 20.135 15.7901 19.9202C15.2345 19.6748 15.142 19.184 15.142 18.6626C15.142 17.589 15.1111 16.5153 15.1728 15.4417C15.2037 14.6442 15.0185 14.3988 14.1543 14.5521C8.62961 15.5337 4.18516 19.7362 2.98146 25.2577C2.9506 25.4417 2.858 25.6564 2.82714 25.8405C2.73455 26.4847 2.61109 27.1595 1.77776 27.0982C0.851832 27.0061 0.851832 26.2699 0.882696 25.5644C0.882696 25.2577 0.882696 24.9509 0.882696 24.5828Z" fill="white"/>
</svg>
